# Blender v2.76 (sub 0) OBJ File: ''
# www.blender.org
o Cube.010_Cube.015
v 11.185163 0.026702 13.142488
v 11.185163 2.026702 13.142488
v 11.185163 0.026702 -13.198311
v 11.185163 2.026702 -13.198311
v 13.185163 0.026702 13.142488
v 13.185163 2.026702 13.142488
v 13.185163 0.026702 -13.198311
v 13.185163 2.026702 -13.198311
vn -1.000000 0.000000 0.000000
vn 0.000000 0.000000 -1.000000
vn 1.000000 0.000000 0.000000
vn 0.000000 0.000000 1.000000
vn 0.000000 -1.000000 0.000000
vn 0.000000 1.000000 0.000000
s off
f 4//1 3//1 1//1
f 8//2 7//2 3//2
f 6//3 5//3 7//3
f 2//4 1//4 5//4
f 3//5 7//5 5//5
f 8//6 4//6 2//6
f 2//1 4//1 1//1
f 4//2 8//2 3//2
f 8//3 6//3 7//3
f 6//4 2//4 5//4
f 1//5 3//5 5//5
f 6//6 8//6 2//6
o Cube.004_Cube.009
v 2.053884 0.012075 6.065794
v 2.053884 2.012075 6.065794
v 2.053884 0.012075 4.065794
v 2.053884 2.012075 4.065794
v 4.053885 0.012075 6.065794
v 4.053885 2.012075 6.065794
v 4.053885 0.012075 4.065794
v 4.053885 2.012075 4.065794
vn -1.000000 0.000000 0.000000
vn 0.000000 0.000000 -1.000000
vn 1.000000 0.000000 0.000000
vn 0.000000 0.000000 1.000000
vn 0.000000 -1.000000 0.000000
vn 0.000000 1.000000 0.000000
s off
f 12//7 11//7 9//7
f 16//8 15//8 11//8
f 14//9 13//9 15//9
f 10//10 9//10 13//10
f 11//11 15//11 13//11
f 16//12 12//12 10//12
f 10//7 12//7 9//7
f 12//8 16//8 11//8
f 16//9 14//9 15//9
f 14//10 10//10 13//10
f 9//11 11//11 13//11
f 14//12 16//12 10//12
o Plane
v 13.191617 0.000000 -13.191617
v -13.191617 0.000000 -13.191617
v 13.191617 0.000000 13.191617
v -13.191617 0.000000 13.191617
vn 0.000000 1.000000 0.000000
s off
f 18//13 20//13 19//13
f 17//13 18//13 19//13
o Cube
v 7.979874 0.058473 -7.992939
v 7.979874 0.058473 -5.993495
v 1.980430 0.058473 -5.993496
v 1.980431 0.058473 -7.992940
v 7.979876 2.058473 -7.992939
v 7.979872 2.058473 -5.993495
v 1.980429 2.058473 -5.993496
v 1.980430 2.058473 -7.992939
vn 0.000000 -1.000000 -0.000000
vn 0.000000 1.000000 0.000000
vn 1.000000 0.000000 0.000000
vn -0.000000 -0.000000 1.000000
vn -1.000000 -0.000000 -0.000000
vn 0.000000 0.000000 -1.000000
s off
f 22//14 23//14 24//14
f 28//15 27//15 26//15
f 25//16 26//16 22//16
f 26//17 27//17 23//17
f 23//18 27//18 28//18
f 21//19 24//19 28//19
f 21//14 22//14 24//14
f 25//15 28//15 26//15
f 21//16 25//16 22//16
f 22//17 26//17 23//17
f 24//18 23//18 28//18
f 25//19 21//19 28//19
o Cube.001_Cube.002
v -2.010169 0.058473 -7.992939
v -2.010169 0.058473 -5.993495
v -8.009613 0.058473 -5.993496
v -8.009611 0.058473 -7.992940
v -2.010167 2.058473 -7.992939
v -2.010170 2.058473 -5.993495
v -8.009613 2.058473 -5.993496
v -8.009612 2.058473 -7.992939
vn 0.000000 -1.000000 0.000000
vn 0.000000 1.000000 0.000000
vn 1.000000 0.000000 0.000000
vn -0.000000 0.000000 1.000000
vn -1.000000 0.000000 -0.000000
vn 0.000000 0.000000 -1.000000
s off
f 30//20 31//20 32//20
f 36//21 35//21 34//21
f 33//22 34//22 30//22
f 34//23 35//23 31//23
f 31//24 35//24 36//24
f 29//25 32//25 36//25
f 29//20 30//20 32//20
f 33//21 36//21 34//21
f 29//22 33//22 30//22
f 30//23 34//23 31//23
f 32//24 31//24 36//24
f 33//25 29//25 36//25
o Cube.002_Cube.003
v -4.014975 0.093076 -6.092822
v -2.015705 0.093084 -6.066399
v -2.094984 0.024003 -0.067877
v -4.094253 0.023994 -0.094301
v -4.015286 2.092943 -6.069797
v -2.016017 2.092951 -6.043370
v -2.095296 2.023870 -0.044849
v -4.094565 2.023862 -0.071273
vn 0.000200 -0.999900 -0.011500
vn -0.000200 0.999900 0.011500
vn 0.013200 0.011500 -0.999800
vn 0.999900 0.000000 0.013200
vn -0.013200 -0.011500 0.999800
vn -0.999900 -0.000000 -0.013200
s off
f 38//26 39//26 40//26
f 44//27 43//27 42//27
f 41//28 42//28 38//28
f 42//29 43//29 39//29
f 43//30 44//30 40//30
f 37//31 40//31 44//31
f 37//26 38//26 40//26
f 41//27 44//27 42//27
f 37//28 41//28 38//28
f 38//29 42//29 39//29
f 39//30 43//30 40//30
f 41//31 37//31 44//31
o Cube.003_Cube.004
v 2.009182 0.093076 -6.080034
v 4.008451 0.093084 -6.053611
v 3.929173 0.024003 -0.055089
v 1.929903 0.023994 -0.081513
v 2.008869 2.092943 -6.057009
v 4.008139 2.092951 -6.030582
v 3.928860 2.023870 -0.032061
v 1.929591 2.023862 -0.058485
vn 0.000200 -0.999900 -0.011500
vn -0.000200 0.999900 0.011500
vn 0.013200 0.011500 -0.999800
vn 0.999900 0.000000 0.013200
vn -0.013200 -0.011500 0.999800
vn -0.999900 -0.000000 -0.013200
s off
f 46//32 47//32 48//32
f 52//33 51//33 50//33
f 49//34 50//34 46//34
f 50//35 51//35 47//35
f 51//36 52//36 48//36
f 45//37 48//37 52//37
f 45//32 46//32 48//32
f 49//33 52//33 50//33
f 45//34 49//34 46//34
f 46//35 50//35 47//35
f 47//36 51//36 48//36
f 49//37 45//37 52//37
o Cube.006_Cube.011
v -4.043881 0.012075 6.065794
v -4.043881 2.012075 6.065794
v -4.043881 0.012075 4.065794
v -4.043881 2.012075 4.065794
v -2.043881 0.012075 6.065794
v -2.043881 2.012075 6.065794
v -2.043881 0.012075 4.065794
v -2.043881 2.012075 4.065794
vn -1.000000 0.000000 0.000000
vn 0.000000 0.000000 -1.000000
vn 1.000000 0.000000 0.000000
vn 0.000000 0.000000 1.000000
vn 0.000000 -1.000000 0.000000
vn 0.000000 1.000000 0.000000
s off
f 56//38 55//38 53//38
f 60//39 59//39 55//39
f 58//40 57//40 59//40
f 54//41 53//41 57//41
f 55//42 59//42 57//42
f 60//43 56//43 54//43
f 54//38 56//38 53//38
f 56//39 60//39 55//39
f 60//40 58//40 59//40
f 58//41 54//41 57//41
f 53//42 55//42 57//42
f 58//43 60//43 54//43
o Cube.008_Cube.013
v 2.053884 0.012075 8.056014
v 2.053884 2.012075 8.056014
v 2.053884 0.012075 6.056014
v 2.053884 2.012075 6.056014
v 4.053885 0.012075 8.056014
v 4.053885 2.012075 8.056014
v 4.053885 0.012075 6.056014
v 4.053885 2.012075 6.056014
vn -1.000000 0.000000 0.000000
vn 0.000000 0.000000 -1.000000
vn 1.000000 0.000000 0.000000
vn 0.000000 0.000000 1.000000
vn 0.000000 -1.000000 0.000000
vn 0.000000 1.000000 0.000000
s off
f 64//44 63//44 61//44
f 68//45 67//45 63//45
f 66//46 65//46 67//46
f 62//47 61//47 65//47
f 63//48 67//48 65//48
f 68//49 64//49 62//49
f 62//44 64//44 61//44
f 64//45 68//45 63//45
f 68//46 66//46 67//46
f 66//47 62//47 65//47
f 61//48 63//48 65//48
f 66//49 68//49 62//49
o Cube.009_Cube.014
v -4.043881 0.012075 8.029097
v -4.043881 2.012075 8.029097
v -4.043881 0.012075 6.029097
v -4.043881 2.012075 6.029097
v -2.043881 0.012075 8.029097
v -2.043881 2.012075 8.029097
v -2.043881 0.012075 6.029097
v -2.043881 2.012075 6.029097
vn -1.000000 0.000000 0.000000
vn 0.000000 0.000000 -1.000000
vn 1.000000 0.000000 0.000000
vn 0.000000 0.000000 1.000000
vn 0.000000 -1.000000 0.000000
vn 0.000000 1.000000 0.000000
s off
f 72//50 71//50 69//50
f 76//51 75//51 71//51
f 74//52 73//52 75//52
f 70//53 69//53 73//53
f 71//54 75//54 73//54
f 76//55 72//55 70//55
f 70//50 72//50 69//50
f 72//51 76//51 71//51
f 76//52 74//52 75//52
f 74//53 70//53 73//53
f 69//54 71//54 73//54
f 74//55 76//55 70//55
o Cube.011_Cube.016
v -13.206738 0.026702 13.142488
v -13.206738 2.026702 13.142488
v -13.206738 0.026702 -13.198311
v -13.206738 2.026702 -13.198311
v -11.206738 0.026702 13.142488
v -11.206738 2.026702 13.142488
v -11.206738 0.026702 -13.198311
v -11.206738 2.026702 -13.198311
vn -1.000000 0.000000 0.000000
vn 0.000000 0.000000 -1.000000
vn 1.000000 0.000000 0.000000
vn 0.000000 0.000000 1.000000
vn 0.000000 -1.000000 0.000000
vn 0.000000 1.000000 0.000000
s off
f 80//56 79//56 77//56
f 84//57 83//57 79//57
f 82//58 81//58 83//58
f 78//59 77//59 81//59
f 79//60 83//60 81//60
f 84//61 80//61 78//61
f 78//56 80//56 77//56
f 80//57 84//57 79//57
f 84//58 82//58 83//58
f 82//59 78//59 81//59
f 77//60 79//60 81//60
f 82//61 84//61 78//61
o Cube.012_Cube.017
v 13.045285 0.026702 13.154958
v 13.045285 2.026702 13.154958
v -13.295514 0.026702 13.154960
v -13.295514 2.026702 13.154960
v 13.045285 0.026702 11.154958
v 13.045285 2.026702 11.154958
v -13.295514 0.026702 11.154960
v -13.295514 2.026702 11.154960
vn 0.000000 0.000000 1.000000
vn -1.000000 0.000000 0.000000
vn -0.000000 0.000000 -1.000000
vn 1.000000 0.000000 0.000000
vn 0.000000 -1.000000 0.000000
vn 0.000000 1.000000 0.000000
s off
f 88//62 87//62 85//62
f 92//63 91//63 87//63
f 90//64 89//64 91//64
f 86//65 85//65 89//65
f 87//66 91//66 89//66
f 92//67 88//67 86//67
f 86//62 88//62 85//62
f 88//63 92//63 87//63
f 92//64 90//64 91//64
f 90//65 86//65 89//65
f 85//66 87//66 89//66
f 90//67 92//67 86//67
o Cube.013_Cube.018
v 13.045285 0.026702 -11.171531
v 13.045285 2.026702 -11.171531
v -13.295514 0.026702 -11.171529
v -13.295514 2.026702 -11.171529
v 13.045285 0.026702 -13.171531
v 13.045285 2.026702 -13.171531
v -13.295514 0.026702 -13.171529
v -13.295514 2.026702 -13.171529
vn 0.000000 0.000000 1.000000
vn -1.000000 0.000000 0.000000
vn -0.000000 0.000000 -1.000000
vn 1.000000 0.000000 0.000000
vn 0.000000 -1.000000 0.000000
vn 0.000000 1.000000 0.000000
s off
f 96//68 95//68 93//68
f 100//69 99//69 95//69
f 98//70 97//70 99//70
f 94//71 93//71 97//71
f 95//72 99//72 97//72
f 100//73 96//73 94//73
f 94//68 96//68 93//68
f 96//69 100//69 95//69
f 100//70 98//70 99//70
f 98//71 94//71 97//71
f 93//72 95//72 97//72
f 98//73 100//73 94//73
o Cube.014_Cube.019
v 2.066851 0.093076 -13.159851
v 4.066120 0.093084 -13.133429
v 3.986841 0.024003 -7.134906
v 1.987572 0.023994 -7.161330
v 2.066538 2.092943 -13.136826
v 4.065807 2.092951 -13.110399
v 3.986529 2.023870 -7.111878
v 1.987260 2.023862 -7.138302
vn 0.000200 -0.999900 -0.011500
vn -0.000200 0.999900 0.011500
vn 0.013200 0.011500 -0.999800
vn 0.999900 0.000000 0.013200
vn -0.013200 -0.011500 0.999800
vn -0.999900 -0.000000 -0.013200
s off
f 102//74 103//74 104//74
f 108//75 107//75 106//75
f 105//76 106//76 102//76
f 106//77 107//77 103//77
f 107//78 108//78 104//78
f 101//79 104//79 108//79
f 101//74 102//74 104//74
f 105//75 108//75 106//75
f 101//76 105//76 102//76
f 102//77 106//77 103//77
f 103//78 107//78 104//78
f 105//79 101//79 108//79
o Cube.015_Cube.020
v -3.978149 0.093076 -13.159851
v -1.978880 0.093084 -13.133429
v -2.058158 0.024003 -7.134906
v -4.057427 0.023994 -7.161330
v -3.978461 2.092943 -13.136826
v -1.979192 2.092951 -13.110399
v -2.058471 2.023870 -7.111878
v -4.057740 2.023862 -7.138302
vn 0.000200 -0.999900 -0.011500
vn -0.000200 0.999900 0.011500
vn 0.013200 0.011500 -0.999800
vn 0.999900 0.000000 0.013200
vn -0.013200 -0.011500 0.999800
vn -0.999900 -0.000000 -0.013200
s off
f 110//80 111//80 112//80
f 116//81 115//81 114//81
f 113//82 114//82 110//82
f 114//83 115//83 111//83
f 115//84 116//84 112//84
f 109//85 112//85 116//85
f 109//80 110//80 112//80
f 113//81 116//81 114//81
f 109//82 113//82 110//82
f 110//83 114//83 111//83
f 111//84 115//84 112//84
f 113//85 109//85 116//85
o Cube.016_Cube.021
v -7.213081 0.058473 4.080610
v -7.213081 0.058473 6.080054
v -13.212525 0.058473 6.080053
v -13.212524 0.058473 4.080609
v -7.213079 2.058473 4.080610
v -7.213083 2.058473 6.080054
v -13.212526 2.058473 6.080053
v -13.212524 2.058473 4.080610
vn 0.000000 -1.000000 0.000000
vn 0.000000 1.000000 0.000000
vn 1.000000 0.000000 0.000000
vn -0.000000 -0.000000 1.000000
vn -1.000000 -0.000000 -0.000000
vn 0.000000 0.000000 -1.000000
s off
f 118//86 119//86 120//86
f 124//87 123//87 122//87
f 121//88 122//88 118//88
f 122//89 123//89 119//89
f 119//90 123//90 124//90
f 117//91 120//91 124//91
f 117//86 118//86 120//86
f 121//87 124//87 122//87
f 117//88 121//88 118//88
f 118//89 122//89 119//89
f 120//90 119//90 124//90
f 121//91 117//91 124//91
o Cube.017_Cube.022
v 13.052677 0.058473 4.080610
v 13.052677 0.058473 6.080054
v 7.053233 0.058473 6.080053
v 7.053235 0.058473 4.080609
v 13.052679 2.058473 4.080610
v 13.052675 2.058473 6.080054
v 7.053233 2.058473 6.080053
v 7.053234 2.058473 4.080610
vn 0.000000 -1.000000 0.000000
vn 0.000000 1.000000 0.000000
vn 1.000000 0.000000 0.000000
vn -0.000000 0.000000 1.000000
vn -1.000000 -0.000000 -0.000000
vn 0.000000 0.000000 -1.000000
s off
f 126//92 127//92 128//92
f 132//93 131//93 130//93
f 129//94 130//94 126//94
f 130//95 131//95 127//95
f 127//96 131//96 132//96
f 125//97 128//97 132//97
f 125//92 126//92 128//92
f 129//93 132//93 130//93
f 125//94 129//94 126//94
f 126//95 130//95 127//95
f 128//96 127//96 132//96
f 129//97 125//97 132//97
o Cube.005_Cube.023
v 3.014149 0.058473 6.921384
v 3.014149 0.058473 8.920828
v -2.985295 0.058473 8.920828
v -2.985294 0.058473 6.921383
v 3.014151 2.058473 6.921384
v 3.014147 2.058473 8.920829
v -2.985296 2.058473 8.920828
v -2.985295 2.058473 6.921384
vn 0.000000 -1.000000 -0.000000
vn 0.000000 1.000000 0.000000
vn 1.000000 0.000000 0.000000
vn 0.000000 -0.000000 1.000000
vn -1.000000 -0.000000 -0.000000
vn 0.000000 0.000000 -1.000000
s off
f 134//98 135//98 136//98
f 140//99 139//99 138//99
f 137//100 138//100 134//100
f 138//101 139//101 135//101
f 135//102 139//102 140//102
f 133//103 136//103 140//103
f 133//98 134//98 136//98
f 137//99 140//99 138//99
f 133//100 137//100 134//100
f 134//101 138//101 135//101
f 136//102 135//102 140//102
f 137//103 133//103 140//103
o Cube.007_Cube.024
v -11.228787 0.012075 -0.135287
v -11.228787 2.012075 -0.135287
v -11.228787 0.012075 -2.135287
v -11.228787 2.012075 -2.135287
v -9.228787 0.012075 -0.135287
v -9.228787 2.012075 -0.135287
v -9.228787 0.012075 -2.135287
v -9.228787 2.012075 -2.135287
vn -1.000000 0.000000 0.000000
vn 0.000000 0.000000 -1.000000
vn 1.000000 0.000000 0.000000
vn 0.000000 0.000000 1.000000
vn 0.000000 -1.000000 0.000000
vn 0.000000 1.000000 0.000000
s off
f 144//104 143//104 141//104
f 148//105 147//105 143//105
f 146//106 145//106 147//106
f 142//107 141//107 145//107
f 143//108 147//108 145//108
f 148//109 144//109 142//109
f 142//104 144//104 141//104
f 144//105 148//105 143//105
f 148//106 146//106 147//106
f 146//107 142//107 145//107
f 141//108 143//108 145//108
f 146//109 148//109 142//109
o Cube.018_Cube.025
v 9.210128 0.012075 -0.135287
v 9.210128 2.012075 -0.135287
v 9.210128 0.012075 -2.135287
v 9.210128 2.012075 -2.135287
v 11.210128 0.012075 -0.135287
v 11.210128 2.012075 -0.135287
v 11.210128 0.012075 -2.135287
v 11.210128 2.012075 -2.135287
vn -1.000000 0.000000 0.000000
vn 0.000000 0.000000 -1.000000
vn 1.000000 0.000000 0.000000
vn 0.000000 0.000000 1.000000
vn 0.000000 -1.000000 0.000000
vn 0.000000 1.000000 0.000000
s off
f 152//110 151//110 149//110
f 156//111 155//111 151//111
f 154//112 153//112 155//112
f 150//113 149//113 153//113
f 151//114 155//114 153//114
f 156//115 152//115 150//115
f 150//110 152//110 149//110
f 152//111 156//111 151//111
f 156//112 154//112 155//112
f 154//113 150//113 153//113
f 149//114 151//114 153//114
f 154//115 156//115 150//115
